PathFileType	4	(X/Y/Z)	Run_400 02
DataRate	CameraRate	NumFrames	NumMarkers	Units	OrigDataRate	OrigDataStartFrame	OrigNumFrames
100	100	6	42	mm	100	120	128
Frame#	Time	RASI			LPSI			RPSI			RTH1			RTH2			RTH3			LTH1			LTH2			LTH3			RTB1			RTB2			RTB3			LTB1			LTB2			LTB3			RCAL			RTOE			RMT5			LCAL			LTOE			LMT5			LACR			RACR			CLAV			C7			RUA1			RUA2			RUA3			RLEL			RMEL			LUA2			LUA3			LLEL			LMEL			RFAsuperior			RFAradius			RFAulna			LFAsuperior			LFAradius			LFAulna			LUA1			LASI			
		X1	Y1	Z1	X2	Y2	Z2	X3	Y3	Z3	X4	Y4	Z4	X5	Y5	Z5	X6	Y6	Z6	X7	Y7	Z7	X8	Y8	Z8	X9	Y9	Z9	X10	Y10	Z10	X11	Y11	Z11	X12	Y12	Z12	X13	Y13	Z13	X14	Y14	Z14	X15	Y15	Z15	X16	Y16	Z16	X17	Y17	Z17	X18	Y18	Z18	X19	Y19	Z19	X20	Y20	Z20	X21	Y21	Z21	X22	Y22	Z22	X23	Y23	Z23	X24	Y24	Z24	X25	Y25	Z25	X26	Y26	Z26	X27	Y27	Z27	X28	Y28	Z28	X29	Y29	Z29	X30	Y30	Z30	X31	Y31	Z31	X32	Y32	Z32	X33	Y33	Z33	X34	Y34	Z34	X35	Y35	Z35	X36	Y36	Z36	X37	Y37	Z37	X38	Y38	Z38	X39	Y39	Z39	X40	Y40	Z40	X41	Y41	Z41	X42	Y42	Z42	

105	1.69	1233.955324	986.532697	-203.302103	1060.434103	1064.891096	-366.877778	1062.127464	1059.64617	-273.509213	1139.851805	807.62339	-168.450051	1120.236141	706.797013	-198.482406	996.663311	616.07881	-193.773874	1170.239325	869.891577	-520.63771	1281.227283	774.468325	-494.622823	1260.02237	639.770988	-475.709444	801.796021	430.536343	-259.041575	694.544621	433.082258	-199.714943	623.815832	393.201908	-256.349204	1406.855864	401.226109	-388.172906	1382.028377	330.78601	-422.985653	1432.444216	267.63755	-360.705604	518.0135780000001	476.997451	-216.338745	505.36027	259.204819	-307.693859	474.216638	249.234948	-234.941165	1368.505182	98.653313	-319.243298	1628.508349	134.315916	-314.082681	1574.634104	145.680556	-399.016227	1221.081331	1528.067804	-485.346229	1295.393109	1506.297555	-167.589455	1306.999386	1451.337655	-310.740128	1197.820651	1548.818734	-310.244995	1276.318991	1383.920921	-70.922195	1215.545714	1376.693109	-42.060138	1235.907562	1311.27442	-22.148027	1210.168478	1233.497112	7.725217	1131.838582	1230.819915	-51.272	1034.103449	1478.968207	-489.713712	1000.128712	1433.11028	-558.870049	938.342548	1388.28413	-570.082868	935.728032	1364.686827	-479.230962	1280.318649	1240.082058	-49.046403	1360.535006	1261.985281	-198.111595	1374.485391	1193.593077	-175.954146	999.417883	1326.745637	-588.991305	1157.16114	1237.77396	-555.62298	1114.588185	1185.733177	-579.468969	1106.402811	1492.758351	-547.419273	1230.101079	1011.076682	-444.860324	
106	1.7	1234.716806	983.084053	-201.853831	1060.112166	1059.819724	-365.516107	1062.286773	1053.834819	-272.41896	1141.739954	803.501741	-166.393517	1124.179812	701.987463	-194.25666	1002.92039	608.447335	-192.785599	1170.548283	866.644975	-520.556291	1279.057622	765.922496	-497.432461	1258.115576	634.366994	-475.11037	808.52744	429.292194	-256.975495	701.622373	442.471491	-198.180752	628.257191	406.377598	-253.977426	1405.245081	396.432212	-387.435462	1381.630586	325.651997	-422.675486	1430.936023	262.348215	-360.953075	528.397075	499.029656	-215.909315	502.048313	280.789092	-302.543743	470.169646	274.478415	-229.492379	1367.294425	92.222095	-321.507644	1638.406264	138.321655	-312.230063	1584.319589	148.975049	-397.117062	1223.590732	1521.099867	-487.149955	1296.110559	1500.188221	-168.023865	1307.4858	1445.128517	-311.132978	1199.262229	1543.972445	-311.931882	1272.316059	1378.890498	-70.708501	1210.793422	1373.455995	-42.820834	1229.693908	1307.601876	-21.715015	1202.148167	1230.525659	7.648175	1124.913578	1229.371853	-52.378999	1036.638248	1467.032985	-496.566274	1006.205207	1418.013528	-565.078632	945.903201	1371.928859	-576.996755	941.933255	1348.879202	-485.97227	1273.639545	1231.277618	-47.514369	1358.43573	1243.443214	-195.234899	1368.178425	1175.269927	-171.018623	1009.411356	1312.328464	-594.386543	1168.833401	1228.664915	-557.2729399999999	1128.327465	1175.406523	-582.469228	1110.602085	1481.482034	-551.539086	1230.135665	1006.914773	-444.095603	
107	1.71	1234.802269	978.7323709999999	-200.153115	1059.92829	1053.857338	-364.423489	1062.109071	1047.276556	-271.354856	1143.699461	798.684542	-163.842679	1128.595553	696.4727370000001	-189.154481	1010.268295	599.670297	-190.871908	1170.836082	861.743679	-519.655992	1278.384891	759.098442	-499.729598	1259.140065	630.287016	-473.901279	818.0594170000001	427.137336	-254.036755	712.202866	450.804404	-196.510756	636.748104	418.441264	-251.879596	1401.37966	388.613681	-386.967433	1379.214998	317.426235	-422.608457	1424.941786	253.45748	-361.887338	542.618471	519.388141	-217.101982	504.295414	300.350886	-296.443531	472.508192	298.40829	-222.923746	1357.792374	87.554002	-323.819192	1636.021096	133.027833	-311.334212	1581.716522	142.984719	-396.162653	1226.090208	1513.131444	-488.962045	1295.795958	1493.238086	-168.237891	1307.681181	1437.841558	-311.169711	1200.157287	1537.834916	-313.747765	1267.005163	1373.110289	-70.752495	1204.597211	1369.324123	-44.316142	1222.054055	1302.772524	-22.065694	1192.688449	1226.332289	6.585235	1117.070867	1226.738218	-54.830914	1039.369466	1453.816658	-504.069232	1013.026352	1401.40414	-571.741677	954.38969	1353.946412	-584.57938	948.656459	1331.647753	-493.354945	1265.373022	1221.252126	-46.494785	1355.278585	1222.68499	-191.616506	1360.19683	1155.110135	-165.622193	1020.20958	1296.465676	-600.024078	1181.001887	1218.151189	-558.8539500000001	1142.752447	1163.74003	-585.256274	1115.119608	1469.347595	-556.039263	1230.301431	1002.034884	-443.690153	
108	1.72	1234.26546	973.779995	-197.837834	1059.737784	1047.019801	-363.689274	1061.60506	1040.103868	-270.568986	1145.62993	793.070973	-161.126267	1133.695536	690.194841	-183.556821	1018.777339	589.864888	-188.194629	1171.333747	855.036335	-517.977071	1279.022613	754.438382	-499.673203	1260.937746	625.378296	-472.765092	830.219645	423.951384	-250.231608	726.050108	457.635332	-194.646433	649.028229	428.590669	-249.860669	1395.617211	377.602941	-386.838787	1373.389026	306.473987	-422.185999	1414.697232	241.461895	-362.350406	560.299134	537.3828590000001	-220.025388	511.678872	317.090556	-289.45055	480.094659	320.180501	-215.774938	1340.413111	86.39169200000001	-324.328844	1615.727533	113.129431	-310.531144	1561.200432	122.385883	-395.301525	1228.716634	1504.276784	-490.789473	1294.364919	1485.58667	-168.222213	1307.631504	1429.613633	-310.913532	1200.683155	1530.511216	-315.715076	1260.459002	1366.575949	-70.956918	1197.179323	1364.176213	-46.324075	1213.158358	1296.635078	-23.390567	1181.988011	1221.005606	4.64493	1108.520113	1222.849635	-58.493039	1042.321581	1439.249563	-512.104927	1020.531359	1383.530648	-578.762934	963.880371	1334.564735	-592.7375469999999	955.8945179999999	1313.052476	-501.241593	1255.750052	1210.140682	-45.856902	1350.835421	1199.992146	-187.345878	1350.48596	1133.374735	-159.598763	1031.827917	1279.351346	-605.918905	1193.631309	1206.347792	-560.414952	1157.777181	1150.829564	-587.692876	1119.977659	1456.239939	-560.672161	1230.490436	996.346506	-443.546525	
109	1.73	1233.258564	968.342026	-194.842386	1059.241087	1039.79892	-363.280292	1060.61031	1032.606288	-270.242285	1147.414921	786.718845	-158.519618	1139.575392	683.186671	-177.928373	1028.550704	579.10511	-184.970227	1172.132377	846.961336	-516.092552	1280.146948	750.931102	-497.396246	1262.051572	618.835068	-472.454769	844.684617	419.771024	-245.939296	742.694469	462.647946	-192.683314	664.608568	436.424425	-248.027081	1388.6635	365.147845	-386.415642	1363.729116	294.919773	-420.428537	1400.469985	228.73812	-360.4367	580.9185649999999	552.467744	-224.552792	523.742261	330.697903	-281.82485	492.218832	339.304933	-208.472504	1315.725999	88.457792	-322.026049	1582.328275	83.711567	-308.975309	1527.579172	92.258994	-393.694273	1231.530518	1494.776528	-492.752141	1291.80366	1477.474341	-167.865223	1307.462249	1420.672973	-310.585221	1201.032219	1522.160344	-317.90046	1252.713096	1359.179265	-71.24525199999999	1188.694184	1357.943329	-48.496812	1203.08963	1288.994683	-25.911246	1170.176033	1214.744153	1.97348	1099.363074	1217.695047	-63.220413	1045.508272	1423.191372	-520.516697	1028.728253	1364.42989	-585.9778700000001	974.433703	1314.017611	-601.220598	963.765927	1293.224607	-509.496764	1244.866623	1197.97326	-45.403427	1344.845707	1175.795405	-182.358571	1339.023613	1110.392198	-152.807993	1044.260272	1261.086827	-612.09559	1206.724743	1193.408261	-561.848605	1173.339078	1136.776081	-589.669712	1125.1316	1441.823072	-565.117135	1230.420501	989.9049659999999	-443.411134	
110	1.74	1231.776663	962.243174	-191.839262	1058.157102	1032.891807	-363.051788	1058.705037	1025.188266	-270.210496	1149.297035	779.891915	-156.504519	1146.357816	675.817096	-173.069698	1039.943973	567.454491	-181.573725	1172.481634	838.960535	-514.846553	1280.869035	747.078223	-495.299056	1262.652528	612.174619	-473.230704	861.303891	414.95793	-241.836938	761.735458	465.645864	-190.910853	683.089635	442.010685	-246.665479	1381.06388	354.562479	-384.894124	1351.388565	286.046343	-417.196287	1382.724158	218.877461	-355.499904	604.085877	564.214957	-230.094375	540.123613	341.207632	-274.109904	508.727801	355.360644	-201.416257	1285.022368	92.091703	-317.59173	1550.871135	58.589602	-306.731969	1495.903793	66.42915000000001	-391.403448	1234.502294	1484.97342	-495.22172	1288.231116	1469.247635	-166.9253	1307.360168	1411.395035	-310.285691	1201.392226	1513.275181	-320.4703	1243.821359	1350.833632	-71.671001	1179.18037	1350.651956	-50.641193	1191.88522	1279.865751	-29.728083	1157.27986	1207.803272	-1.406631	1089.363754	1211.63435	-68.90511600000001	1049.017097	1405.485965	-529.337628	1037.714024	1343.90354	-593.115976	986.067752	1292.506785	-609.665889	972.62854	1272.351241	-518.120482	1232.602868	1184.734633	-45.10826	1337.056074	1150.714491	-176.547613	1325.832057	1086.782286	-145.25101	1057.442872	1241.651713	-618.4318940000001	1220.277623	1179.514779	-562.903903	1189.396739	1121.736027	-591.09678	1130.594295	1425.721116	-569.342361	1229.745352	982.983189	-443.273192	
